<svg width="56" height="56" viewBox="0 0 56 56" fill="none" xmlns="http://www.w3.org/2000/svg">
    <g filter="url(#filter0_d_0_1)">
        <path d="M8.634 7.483C8.66333 7.54167 8.678 7.604 8.678 7.67C8.678 7.78 8.634 7.87167 8.546 7.945C8.46533 8.01833 8.36633 8.055 8.249 8.055C8.06567 8.055 7.93733 7.967 7.864 7.791L7.083 6.009H2.936L2.144 7.791C2.07067 7.967 1.94233 8.055 1.759 8.055C1.64167 8.055 1.539 8.01833 1.451 7.945C1.363 7.86433 1.319 7.769 1.319 7.659C1.319 7.60033 1.33367 7.54167 1.363 7.483L4.509 0.487C4.553 0.384333 4.619 0.307333 4.707 0.255999C4.795 0.204666 4.89033 0.179 4.993 0.179C5.103 0.179 5.202 0.208333 5.29 0.267C5.378 0.318333 5.444 0.391666 5.488 0.487L8.634 7.483ZM3.266 5.261H6.753L5.004 1.312L3.266 5.261ZM12.9205 8.088C11.9085 8.088 11.1421 7.824 10.6215 7.296C10.1008 6.768 9.84048 5.99067 9.84048 4.964V0.652C9.84048 0.512666 9.88081 0.402666 9.96148 0.322C10.0421 0.234 10.1521 0.19 10.2915 0.19C10.4235 0.19 10.5298 0.234 10.6105 0.322C10.6911 0.402666 10.7315 0.512666 10.7315 0.652V5.041C10.7315 5.79633 10.9148 6.36467 11.2815 6.746C11.6555 7.12733 12.2018 7.318 12.9205 7.318C13.6391 7.318 14.1818 7.12733 14.5485 6.746C14.9151 6.36467 15.0985 5.79633 15.0985 5.041V0.652C15.0985 0.512666 15.1388 0.402666 15.2195 0.322C15.3075 0.234 15.4175 0.19 15.5495 0.19C15.6888 0.19 15.7988 0.234 15.8795 0.322C15.9601 0.402666 16.0005 0.512666 16.0005 0.652V4.964C16.0005 5.98333 15.7365 6.76067 15.2085 7.296C14.6878 7.824 13.9251 8.088 12.9205 8.088ZM20.1874 8.055C20.0481 8.055 19.9344 8.01467 19.8464 7.934C19.7658 7.846 19.7254 7.73233 19.7254 7.593V1.015H17.3604C17.2284 1.015 17.1258 0.981999 17.0524 0.915999C16.9791 0.849999 16.9424 0.754666 16.9424 0.63C16.9424 0.505333 16.9791 0.41 17.0524 0.344C17.1258 0.278 17.2284 0.245 17.3604 0.245H23.0034C23.1354 0.245 23.2381 0.278 23.3114 0.344C23.3848 0.41 23.4214 0.505333 23.4214 0.63C23.4214 0.754666 23.3848 0.849999 23.3114 0.915999C23.2381 0.981999 23.1354 1.015 23.0034 1.015H20.6384V7.593C20.6384 7.73233 20.5981 7.846 20.5174 7.934C20.4368 8.01467 20.3268 8.055 20.1874 8.055ZM27.1913 8.088C26.4726 8.088 25.8456 7.92667 25.3103 7.604C24.7823 7.28133 24.3753 6.823 24.0893 6.229C23.8033 5.635 23.6603 4.93467 23.6603 4.128C23.6603 3.314 23.7996 2.61 24.0783 2.016C24.3643 1.41467 24.7713 0.956333 25.2993 0.641C25.8346 0.318333 26.4653 0.156999 27.1913 0.156999C27.9173 0.156999 28.5443 0.318333 29.0723 0.641C29.6076 0.956333 30.0146 1.41467 30.2933 2.016C30.5793 2.61 30.7223 3.31033 30.7223 4.117C30.7223 4.92367 30.5793 5.62767 30.2933 6.229C30.0073 6.823 29.5966 7.28133 29.0613 7.604C28.5333 7.92667 27.9099 8.088 27.1913 8.088ZM27.1913 7.318C28.0126 7.318 28.6506 7.043 29.1053 6.493C29.5673 5.93567 29.7983 5.14367 29.7983 4.117C29.7983 3.09033 29.5709 2.302 29.1163 1.752C28.6616 1.202 28.0199 0.927 27.1913 0.927C26.3699 0.927 25.7283 1.20567 25.2663 1.763C24.8116 2.313 24.5843 3.09767 24.5843 4.117C24.5843 5.13633 24.8116 5.92467 25.2663 6.482C25.7283 7.03933 26.3699 7.318 27.1913 7.318ZM39.2326 0.19C39.372 0.19 39.4783 0.234 39.5516 0.322C39.6323 0.402666 39.6726 0.512666 39.6726 0.652V7.615C39.6726 7.747 39.636 7.85333 39.5626 7.934C39.4893 8.01467 39.3866 8.055 39.2546 8.055C39.1226 8.055 39.0236 8.01467 38.9576 7.934C38.8916 7.85333 38.8586 7.747 38.8586 7.615V1.994L36.4716 6.57C36.369 6.78267 36.2186 6.889 36.0206 6.889C35.83 6.889 35.6796 6.78267 35.5696 6.57L33.1716 2.049V7.615C33.1716 7.747 33.135 7.85333 33.0616 7.934C32.9956 8.01467 32.8966 8.055 32.7646 8.055C32.6326 8.055 32.53 8.01467 32.4566 7.934C32.3833 7.85333 32.3466 7.747 32.3466 7.615V0.652C32.3466 0.512666 32.387 0.402666 32.4676 0.322C32.5483 0.234 32.6583 0.19 32.7976 0.19C32.981 0.19 33.1276 0.296333 33.2376 0.508999L36.0316 5.866L38.7926 0.508999C38.8513 0.391666 38.9136 0.311 38.9796 0.267C39.053 0.215666 39.1373 0.19 39.2326 0.19ZM48.2727 7.483C48.302 7.54167 48.3167 7.604 48.3167 7.67C48.3167 7.78 48.2727 7.87167 48.1847 7.945C48.104 8.01833 48.005 8.055 47.8877 8.055C47.7043 8.055 47.576 7.967 47.5027 7.791L46.7217 6.009H42.5747L41.7827 7.791C41.7093 7.967 41.581 8.055 41.3977 8.055C41.2803 8.055 41.1777 8.01833 41.0897 7.945C41.0017 7.86433 40.9577 7.769 40.9577 7.659C40.9577 7.60033 40.9723 7.54167 41.0017 7.483L44.1477 0.487C44.1917 0.384333 44.2577 0.307333 44.3457 0.255999C44.4337 0.204666 44.529 0.179 44.6317 0.179C44.7417 0.179 44.8407 0.208333 44.9287 0.267C45.0167 0.318333 45.0827 0.391666 45.1267 0.487L48.2727 7.483ZM42.9047 5.261H46.3917L44.6427 1.312L42.9047 5.261ZM51.0068 8.055C50.8674 8.055 50.7538 8.01467 50.6658 7.934C50.5851 7.846 50.5448 7.73233 50.5448 7.593V1.015H48.1798C48.0478 1.015 47.9451 0.981999 47.8718 0.915999C47.7984 0.849999 47.7618 0.754666 47.7618 0.63C47.7618 0.505333 47.7984 0.41 47.8718 0.344C47.9451 0.278 48.0478 0.245 48.1798 0.245H53.8228C53.9548 0.245 54.0574 0.278 54.1308 0.344C54.2041 0.41 54.2408 0.505333 54.2408 0.63C54.2408 0.754666 54.2041 0.849999 54.1308 0.915999C54.0574 0.981999 53.9548 1.015 53.8228 1.015H51.4578V7.593C51.4578 7.73233 51.4174 7.846 51.3368 7.934C51.2561 8.01467 51.1461 8.055 51.0068 8.055ZM7.534 52.318C7.63667 52.4133 7.688 52.5197 7.688 52.637C7.688 52.7397 7.644 52.835 7.556 52.923C7.47533 53.0037 7.38 53.044 7.27 53.044C7.17467 53.044 7.07567 53 6.973 52.912L2.859 49.315V52.593C2.859 52.7323 2.81867 52.846 2.738 52.934C2.65733 53.0147 2.54733 53.055 2.408 53.055C2.26867 53.055 2.15867 53.0147 2.078 52.934C1.99733 52.846 1.957 52.7323 1.957 52.593V45.652C1.957 45.5127 1.99733 45.4027 2.078 45.322C2.15867 45.234 2.26867 45.19 2.408 45.19C2.54733 45.19 2.65733 45.234 2.738 45.322C2.81867 45.4027 2.859 45.5127 2.859 45.652V48.809L6.786 45.322C6.86667 45.2413 6.962 45.201 7.072 45.201C7.182 45.201 7.27733 45.245 7.358 45.333C7.43867 45.4137 7.479 45.5053 7.479 45.608C7.479 45.718 7.43133 45.8207 7.336 45.916L3.783 49.04L7.534 52.318ZM15.3586 52.483C15.3879 52.5417 15.4026 52.604 15.4026 52.67C15.4026 52.78 15.3586 52.8717 15.2706 52.945C15.1899 53.0183 15.0909 53.055 14.9736 53.055C14.7903 53.055 14.6619 52.967 14.5886 52.791L13.8076 51.009H9.66061L8.86861 52.791C8.79528 52.967 8.66694 53.055 8.48361 53.055C8.36628 53.055 8.26361 53.0183 8.17561 52.945C8.08761 52.8643 8.04361 52.769 8.04361 52.659C8.04361 52.6003 8.05828 52.5417 8.08761 52.483L11.2336 45.487C11.2776 45.3843 11.3436 45.3073 11.4316 45.256C11.5196 45.2047 11.6149 45.179 11.7176 45.179C11.8276 45.179 11.9266 45.2083 12.0146 45.267C12.1026 45.3183 12.1686 45.3917 12.2126 45.487L15.3586 52.483ZM9.99061 50.261H13.4776L11.7286 46.312L9.99061 50.261ZM25.8866 45.465C25.9159 45.3697 25.9672 45.3 26.0406 45.256C26.1139 45.2047 26.1946 45.179 26.2826 45.179C26.3999 45.179 26.4989 45.2157 26.5796 45.289C26.6676 45.355 26.7116 45.4467 26.7116 45.564C26.7116 45.6153 26.7006 45.674 26.6786 45.74L24.1926 52.747C24.1559 52.8497 24.0936 52.9303 24.0056 52.989C23.9176 53.0403 23.8186 53.066 23.7086 53.066C23.6059 53.066 23.5106 53.0403 23.4226 52.989C23.3346 52.9303 23.2722 52.8497 23.2356 52.747L21.0796 46.653L18.9016 52.747C18.8649 52.8497 18.8026 52.9303 18.7146 52.989C18.6266 53.0403 18.5312 53.066 18.4286 53.066C18.3259 53.066 18.2306 53.0403 18.1426 52.989C18.0546 52.9303 17.9922 52.8497 17.9556 52.747L15.4586 45.74C15.4366 45.6813 15.4256 45.6263 15.4256 45.575C15.4256 45.4577 15.4696 45.3623 15.5576 45.289C15.6529 45.2157 15.7592 45.179 15.8766 45.179C15.9646 45.179 16.0452 45.2047 16.1186 45.256C16.1992 45.3 16.2542 45.3697 16.2836 45.465L18.4506 51.713L20.6506 45.531C20.6872 45.421 20.7459 45.3403 20.8266 45.289C20.9072 45.2303 20.9952 45.201 21.0906 45.201C21.1859 45.201 21.2739 45.2303 21.3546 45.289C21.4352 45.3477 21.4939 45.432 21.5306 45.542L23.6976 51.735L25.8866 45.465ZM31.1551 53.088C30.4365 53.088 29.8095 52.9267 29.2741 52.604C28.7461 52.2813 28.3391 51.823 28.0531 51.229C27.7671 50.635 27.6241 49.9347 27.6241 49.128C27.6241 48.314 27.7635 47.61 28.0421 47.016C28.3281 46.4147 28.7351 45.9563 29.2631 45.641C29.7985 45.3183 30.4291 45.157 31.1551 45.157C31.8811 45.157 32.5081 45.3183 33.0361 45.641C33.5715 45.9563 33.9785 46.4147 34.2571 47.016C34.5431 47.61 34.6861 48.3103 34.6861 49.117C34.6861 49.9237 34.5431 50.6277 34.2571 51.229C33.9711 51.823 33.5605 52.2813 33.0251 52.604C32.4971 52.9267 31.8738 53.088 31.1551 53.088ZM31.1551 52.318C31.9765 52.318 32.6145 52.043 33.0691 51.493C33.5311 50.9357 33.7621 50.1437 33.7621 49.117C33.7621 48.0903 33.5348 47.302 33.0801 46.752C32.6255 46.202 31.9838 45.927 31.1551 45.927C30.3338 45.927 29.6921 46.2057 29.2301 46.763C28.7755 47.313 28.5481 48.0977 28.5481 49.117C28.5481 50.1363 28.7755 50.9247 29.2301 51.482C29.6921 52.0393 30.3338 52.318 31.1551 52.318ZM46.0496 45.465C46.079 45.3697 46.1303 45.3 46.2036 45.256C46.277 45.2047 46.3576 45.179 46.4456 45.179C46.563 45.179 46.662 45.2157 46.7426 45.289C46.8306 45.355 46.8746 45.4467 46.8746 45.564C46.8746 45.6153 46.8636 45.674 46.8416 45.74L44.3556 52.747C44.319 52.8497 44.2566 52.9303 44.1686 52.989C44.0806 53.0403 43.9816 53.066 43.8716 53.066C43.769 53.066 43.6736 53.0403 43.5856 52.989C43.4976 52.9303 43.4353 52.8497 43.3986 52.747L41.2426 46.653L39.0646 52.747C39.028 52.8497 38.9656 52.9303 38.8776 52.989C38.7896 53.0403 38.6943 53.066 38.5916 53.066C38.489 53.066 38.3936 53.0403 38.3056 52.989C38.2176 52.9303 38.1553 52.8497 38.1186 52.747L35.6216 45.74C35.5996 45.6813 35.5886 45.6263 35.5886 45.575C35.5886 45.4577 35.6326 45.3623 35.7206 45.289C35.816 45.2157 35.9223 45.179 36.0396 45.179C36.1276 45.179 36.2083 45.2047 36.2816 45.256C36.3623 45.3 36.4173 45.3697 36.4466 45.465L38.6136 51.713L40.8136 45.531C40.8503 45.421 40.909 45.3403 40.9896 45.289C41.0703 45.2303 41.1583 45.201 41.2536 45.201C41.349 45.201 41.437 45.2303 41.5176 45.289C41.5983 45.3477 41.657 45.432 41.6936 45.542L43.8606 51.735L46.0496 45.465ZM53.2357 45.366C53.3237 45.256 53.4301 45.201 53.5547 45.201C53.6574 45.201 53.7491 45.2413 53.8297 45.322C53.9104 45.4027 53.9507 45.5017 53.9507 45.619C53.9507 45.729 53.9177 45.8207 53.8517 45.894L51.1787 49.271V52.593C51.1787 52.7397 51.1347 52.8533 51.0467 52.934C50.9661 53.0147 50.8597 53.055 50.7277 53.055C50.5957 53.055 50.4857 53.0147 50.3977 52.934C50.3171 52.8533 50.2767 52.7397 50.2767 52.593V49.26L47.6037 45.894C47.5304 45.8133 47.4937 45.7217 47.4937 45.619C47.4937 45.5017 47.5341 45.4027 47.6147 45.322C47.7027 45.2413 47.8017 45.201 47.9117 45.201C48.0364 45.201 48.1427 45.256 48.2307 45.366L50.7387 48.567L53.2357 45.366Z" fill="#211DCE"/>
    </g>
    <g clip-path="url(#clip0_0_1)" filter="url(#filter1_d_0_1)">
        <path d="M24.8474 34.8652H25.4475L25.0274 28.7981C25.0152 28.6226 25.071 28.4497 25.1812 28.3207C25.2914 28.1917 25.4464 28.1183 25.6085 28.1183H30.3914C30.5535 28.1183 30.7083 28.1917 30.8186 28.3207C30.9289 28.4497 30.9847 28.6226 30.9726 28.7981L30.5524 34.8652H31.1525C31.4744 34.8652 31.7353 35.1484 31.7353 35.4976C31.7353 35.8469 31.4744 36.13 31.1525 36.13H29.937C29.9328 36.1301 29.9285 36.1302 29.9242 36.1302H26.0757C26.0714 36.1302 26.0672 36.1301 26.0629 36.13H24.8473C24.5255 36.13 24.2645 35.8469 24.2645 35.4976C24.2645 35.1484 24.5256 34.8652 24.8474 34.8652ZM26.6164 34.8652H29.3835L29.5765 32.0766H27.6754C27.3536 32.0766 27.0926 31.7934 27.0926 31.4442C27.0926 31.0949 27.3536 30.8118 27.6754 30.8118H29.6641L29.763 29.3832H26.2367L26.6164 34.8652ZM33.1712 41.5591C33.1712 41.9083 33.4322 42.1915 33.754 42.1915H35.2182C35.54 42.1915 35.801 41.9083 35.801 41.5591C35.801 41.2098 35.54 40.9267 35.2182 40.9267H33.754C33.4321 40.9267 33.1712 41.2098 33.1712 41.5591ZM20.199 41.5591C20.199 41.9083 20.46 42.1915 20.7818 42.1915H22.246C22.5679 42.1915 22.8288 41.9083 22.8288 41.5591C22.8288 41.2098 22.5679 40.9267 22.246 40.9267H20.7818C20.46 40.9267 20.199 41.2098 20.199 41.5591ZM33.0752 21.1231C33.0752 20.7739 32.8142 20.4907 32.4924 20.4907H30.9731C30.6513 20.4907 30.3903 20.7739 30.3903 21.1231C30.3903 21.4724 30.6513 21.7555 30.9731 21.7555H32.4924C32.8142 21.7555 33.0752 21.4724 33.0752 21.1231ZM33.0752 23.4817C33.0752 23.1325 32.8142 22.8493 32.4924 22.8493H30.9731C30.6513 22.8493 30.3903 23.1325 30.3903 23.4817C30.3903 23.831 30.6513 24.1141 30.9731 24.1141H32.4924C32.8142 24.1141 33.0752 23.831 33.0752 23.4817ZM20.7818 11.8085H35.2182C35.54 11.8085 35.801 12.0917 35.801 12.4409V39.0966C35.801 39.4458 35.54 39.729 35.2182 39.729H20.7818C20.46 39.729 20.199 39.4458 20.199 39.0966V12.4409C20.199 12.0917 20.46 11.8085 20.7818 11.8085ZM21.3646 38.4642H34.6354V13.0733H21.3646V38.4642ZM33.0752 16.4059C33.0752 16.0566 32.8142 15.7735 32.4924 15.7735H30.9731C30.6513 15.7735 30.3903 16.0566 30.3903 16.4059C30.3903 16.7551 30.6513 17.0383 30.9731 17.0383H32.4924C32.8142 17.0383 33.0752 16.7551 33.0752 16.4059ZM33.0752 18.7645C33.0752 18.4153 32.8142 18.1321 32.4924 18.1321H30.9731C30.6513 18.1321 30.3903 18.4153 30.3903 18.7645C30.3903 19.1137 30.6513 19.3969 30.9731 19.3969H32.4924C32.8142 19.3969 33.0752 19.1137 33.0752 18.7645ZM25.829 24.9443C24.2277 24.9443 22.9248 23.5307 22.9248 21.7932V19.482C22.9248 17.9611 23.9232 16.6883 25.2462 16.3947V15.5757C25.2462 15.2265 25.5071 14.9433 25.829 14.9433C26.1508 14.9433 26.4118 15.2265 26.4118 15.5757V16.3947C27.7346 16.6883 28.7328 17.961 28.7328 19.482V21.7931C28.7328 23.5307 27.4302 24.9443 25.829 24.9443ZM27.5672 19.482C27.5672 18.6636 27.0844 17.9653 26.4118 17.7048V21.7252C26.4118 22.0744 26.1508 22.3575 25.829 22.3575C25.5071 22.3575 25.2462 22.0744 25.2462 21.7252V17.7048C24.5734 17.9653 24.0904 18.6636 24.0904 19.482V21.7931C24.0904 22.8333 24.8704 23.6794 25.829 23.6794C26.7874 23.6794 27.5672 22.8333 27.5672 21.7931V19.482Z" fill="#211DCE" fill-opacity="0.85"/>
    </g>
    <defs>
        <filter id="filter0_d_0_1" x="0.319" y="0.157013" width="54.9218" height="54.931" filterUnits="userSpaceOnUse" color-interpolation-filters="sRGB">
            <feFlood flood-opacity="0" result="BackgroundImageFix"/>
            <feColorMatrix in="SourceAlpha" type="matrix" values="0 0 0 0 0 0 0 0 0 0 0 0 0 0 0 0 0 0 127 0" result="hardAlpha"/>
            <feOffset dy="1"/>
            <feGaussianBlur stdDeviation="0.5"/>
            <feColorMatrix type="matrix" values="0 0 0 0 0 0 0 0 0 0 0 0 0 0 0 0 0 0 0.7 0"/>
            <feBlend mode="normal" in2="BackgroundImageFix" result="effect1_dropShadow_0_1"/>
            <feBlend mode="normal" in="SourceGraphic" in2="effect1_dropShadow_0_1" result="shape"/>
        </filter>
        <filter id="filter1_d_0_1" x="13" y="11.8085" width="30" height="32.383" filterUnits="userSpaceOnUse" color-interpolation-filters="sRGB">
            <feFlood flood-opacity="0" result="BackgroundImageFix"/>
            <feColorMatrix in="SourceAlpha" type="matrix" values="0 0 0 0 0 0 0 0 0 0 0 0 0 0 0 0 0 0 127 0" result="hardAlpha"/>
            <feOffset dy="1"/>
            <feGaussianBlur stdDeviation="0.5"/>
            <feColorMatrix type="matrix" values="0 0 0 0 0 0 0 0 0 0 0 0 0 0 0 0 0 0 0.75 0"/>
            <feBlend mode="normal" in2="BackgroundImageFix" result="effect1_dropShadow_0_1"/>
            <feBlend mode="normal" in="SourceGraphic" in2="effect1_dropShadow_0_1" result="shape"/>
        </filter>
        <clipPath id="clip0_0_1">
            <rect width="28" height="30.383" fill="white" transform="matrix(-1 0 0 1 42 11.8085)"/>
        </clipPath>
    </defs>
</svg>
