<svg width="69" height="59" viewBox="0 0 69 59" fill="none" xmlns="http://www.w3.org/2000/svg">
    <g clip-path="url(#clip0_0_1)" filter="url(#filter0_d_0_1)">
        <path d="M30.0786 35.8777L40.6826 31.4081C41.1138 31.2264 41.4037 30.7831 41.4195 30.2814C41.4354 29.7797 41.1741 29.316 40.7552 29.1029L36.7205 27.0476L34.8256 22.6694C34.6346 22.2282 34.2262 21.9481 33.7792 21.9481C33.7659 21.9481 33.7526 21.9483 33.7394 21.9488C33.277 21.966 32.8688 22.2805 32.7012 22.7484L28.5821 34.2539C28.4162 34.7175 28.5183 35.2437 28.8424 35.5954C29.1666 35.947 29.6519 36.0577 30.0786 35.8777ZM33.8797 26.3865L34.8048 28.5241C34.9195 28.7891 35.1159 29.0022 35.3601 29.1265L37.3293 30.1295L31.6884 32.5071L33.8797 26.3865Z" fill="#211DCE" fill-opacity="0.55"/>
        <path d="M34.4997 45.1915C42.4947 45.1913 48.999 38.1331 48.999 29.4575C48.999 20.7818 42.4947 13.7234 34.4996 13.7232C26.504 13.7234 19.9992 20.7816 19.9992 29.4573C19.9992 38.1332 26.5041 45.1915 34.4997 45.1915ZM34.4997 16.2327C41.2196 16.2328 46.6867 22.1654 46.6867 29.4577C46.6867 36.7496 41.2197 42.6822 34.4997 42.6824C27.7792 42.6824 22.3118 36.7498 22.3118 29.4575C22.3116 22.1654 27.7792 16.2328 34.4997 16.2327Z" fill="#211DCE" fill-opacity="0.55"/>
    </g>
    <g filter="url(#filter1_d_0_1)">
        <path d="M17.5389 11.077C17.2382 11.077 17.0879 10.9193 17.0879 10.604V3.641C17.0879 3.32567 17.2382 3.168 17.5389 3.168C17.8395 3.168 17.9899 3.32567 17.9899 3.641V10.604C17.9899 10.9193 17.8395 11.077 17.5389 11.077ZM20.4081 11C20.0781 11 19.9131 10.835 19.9131 10.505V3.74C19.9131 3.41 20.0781 3.245 20.4081 3.245H22.5311C23.7851 3.245 24.7531 3.57867 25.4351 4.246C26.1171 4.906 26.4581 5.863 26.4581 7.117C26.4581 8.371 26.1171 9.33167 25.4351 9.999C24.7531 10.6663 23.7851 11 22.5311 11H20.4081ZM20.8151 10.23H22.4651C24.4891 10.23 25.5011 9.19233 25.5011 7.117C25.5011 5.049 24.4891 4.015 22.4651 4.015H20.8151V10.23ZM27.905 11C27.6777 11 27.531 10.912 27.465 10.736C27.4063 10.5527 27.4613 10.3473 27.63 10.12L31.964 4.026H27.839C27.553 4.026 27.41 3.894 27.41 3.63C27.41 3.37333 27.553 3.245 27.839 3.245H32.613C32.8477 3.245 32.9943 3.333 33.053 3.509C33.119 3.685 33.0677 3.89033 32.899 4.125L28.565 10.219H32.844C33.13 10.219 33.273 10.3473 33.273 10.604C33.273 10.868 33.13 11 32.844 11H27.905ZM30.71 2.541C30.6293 2.629 30.5377 2.66567 30.435 2.651C30.3397 2.629 30.2663 2.57767 30.215 2.497C30.1637 2.409 30.171 2.31367 30.237 2.211L31.216 0.792C31.2967 0.674666 31.3883 0.612333 31.491 0.604999C31.601 0.590333 31.6963 0.612333 31.777 0.670999C31.865 0.729666 31.92 0.806666 31.942 0.902C31.9713 0.997333 31.942 1.09267 31.854 1.188L30.71 2.541ZM37.7245 11C37.3945 11 37.2295 10.835 37.2295 10.505V3.74C37.2295 3.41 37.3945 3.245 37.7245 3.245H39.8475C41.1015 3.245 42.0695 3.57867 42.7515 4.246C43.4335 4.906 43.7745 5.863 43.7745 7.117C43.7745 8.371 43.4335 9.33167 42.7515 9.999C42.0695 10.6663 41.1015 11 39.8475 11H37.7245ZM38.1315 10.23H39.7815C41.8055 10.23 42.8175 9.19233 42.8175 7.117C42.8175 5.049 41.8055 4.015 39.7815 4.015H38.1315V10.23ZM48.6495 11.099C47.9309 11.099 47.3039 10.9377 46.7685 10.615C46.2405 10.285 45.8299 9.823 45.5365 9.229C45.2505 8.635 45.1075 7.931 45.1075 7.117C45.1075 6.303 45.2505 5.599 45.5365 5.005C45.8225 4.411 46.2295 3.95267 46.7575 3.63C47.2929 3.30733 47.9235 3.146 48.6495 3.146C49.3829 3.146 50.0135 3.30733 50.5415 3.63C51.0769 3.95267 51.4875 4.411 51.7735 5.005C52.0669 5.59167 52.2135 6.292 52.2135 7.106C52.2135 7.92 52.0669 8.62767 51.7735 9.229C51.4802 9.823 51.0659 10.285 50.5305 10.615C50.0025 10.9377 49.3755 11.099 48.6495 11.099ZM48.6495 10.296C49.4782 10.296 50.1199 10.0173 50.5745 9.46C51.0292 8.90267 51.2565 8.12167 51.2565 7.117C51.2565 6.11233 51.0292 5.335 50.5745 4.785C50.1199 4.22767 49.4782 3.949 48.6495 3.949C47.8355 3.949 47.2012 4.22767 46.7465 4.785C46.2919 5.335 46.0645 6.11233 46.0645 7.117C46.0645 8.11433 46.2919 8.89533 46.7465 9.46C47.2012 10.0173 47.8355 10.296 48.6495 10.296ZM1.83481 56C1.50481 56 1.33981 55.835 1.33981 55.505V48.74C1.33981 48.41 1.50481 48.245 1.83481 48.245H3.95781C5.21181 48.245 6.17981 48.5787 6.86181 49.246C7.54381 49.906 7.88481 50.863 7.88481 52.117C7.88481 53.371 7.54381 54.3317 6.86181 54.999C6.17981 55.6663 5.21181 56 3.95781 56H1.83481ZM2.24181 55.23H3.89181C5.91581 55.23 6.92781 54.1923 6.92781 52.117C6.92781 50.049 5.91581 49.015 3.89181 49.015H2.24181V55.23ZM9.33174 56C9.10441 56 8.95774 55.912 8.89174 55.736C8.83308 55.5527 8.88808 55.3473 9.05674 55.12L13.3907 49.026H9.26574C8.97974 49.026 8.83674 48.894 8.83674 48.63C8.83674 48.3733 8.97974 48.245 9.26574 48.245H14.0397C14.2744 48.245 14.4211 48.333 14.4797 48.509C14.5457 48.685 14.4944 48.8903 14.3257 49.125L9.99174 55.219H14.2707C14.5567 55.219 14.6997 55.3473 14.6997 55.604C14.6997 55.868 14.5567 56 14.2707 56H9.33174ZM16.2713 56.077C15.9706 56.077 15.8203 55.9193 15.8203 55.604V48.641C15.8203 48.3257 15.9706 48.168 16.2713 48.168C16.5719 48.168 16.7223 48.3257 16.7223 48.641V55.604C16.7223 55.9193 16.5719 56.077 16.2713 56.077ZM19.1405 56C18.8105 56 18.6455 55.835 18.6455 55.505V48.74C18.6455 48.41 18.8105 48.245 19.1405 48.245H23.2325C23.4891 48.245 23.6175 48.3697 23.6175 48.619C23.6175 48.8757 23.4891 49.004 23.2325 49.004H19.5255V51.688H23.0015C23.2581 51.688 23.3865 51.8127 23.3865 52.062C23.3865 52.3187 23.2581 52.447 23.0015 52.447H19.5255V55.241H23.2325C23.4891 55.241 23.6175 55.3657 23.6175 55.615C23.6175 55.8717 23.4891 56 23.2325 56H19.1405ZM25.5096 56.077C25.2089 56.077 25.0586 55.9193 25.0586 55.604V48.63C25.0586 48.322 25.2089 48.168 25.5096 48.168C25.8102 48.168 25.9606 48.322 25.9606 48.63V51.765H25.9826L29.5686 48.421C29.7446 48.2523 29.9279 48.168 30.1186 48.168C30.3166 48.168 30.4339 48.2413 30.4706 48.388C30.5146 48.5273 30.4706 48.6593 30.3386 48.784L26.8516 52.007L30.5146 55.395C30.6759 55.549 30.7272 55.703 30.6686 55.857C30.6099 56.0037 30.4816 56.077 30.2836 56.077C30.1736 56.077 30.0782 56.0513 29.9976 56C29.9242 55.956 29.8399 55.8863 29.7446 55.791L25.9826 52.348H25.9606V55.604C25.9606 55.9193 25.8102 56.077 25.5096 56.077ZM31.457 56.077C31.281 56.077 31.16 56.0183 31.094 55.901C31.028 55.7837 31.0354 55.637 31.116 55.461L34.141 48.575C34.2584 48.3037 34.438 48.168 34.68 48.168C34.79 48.168 34.889 48.201 34.977 48.267C35.0724 48.3257 35.1494 48.4283 35.208 48.575L38.244 55.461C38.3247 55.637 38.3357 55.7837 38.277 55.901C38.2184 56.0183 38.101 56.077 37.925 56.077C37.793 56.077 37.6867 56.044 37.606 55.978C37.5254 55.9047 37.4594 55.802 37.408 55.67L36.693 54.02H32.656L31.952 55.67C31.8347 55.9413 31.6697 56.077 31.457 56.077ZM34.669 49.301L32.986 53.261H36.374L34.691 49.301H34.669ZM40.0647 56.077C39.7787 56.077 39.6357 55.9267 39.6357 55.626V48.63C39.6357 48.322 39.7677 48.168 40.0317 48.168C40.1417 48.168 40.226 48.19 40.2847 48.234C40.3434 48.2707 40.4094 48.3403 40.4827 48.443L45.0147 54.482V48.608C45.0147 48.3147 45.1577 48.168 45.4437 48.168C45.715 48.168 45.8507 48.3147 45.8507 48.608V55.637C45.8507 55.9303 45.7297 56.077 45.4877 56.077C45.3777 56.077 45.2897 56.055 45.2237 56.011C45.1577 55.967 45.088 55.8973 45.0147 55.802L40.4827 49.741V55.626C40.4827 55.9267 40.3434 56.077 40.0647 56.077ZM47.6133 56.077C47.4373 56.077 47.3163 56.0183 47.2503 55.901C47.1843 55.7837 47.1916 55.637 47.2723 55.461L50.2973 48.575C50.4146 48.3037 50.5943 48.168 50.8363 48.168C50.9463 48.168 51.0453 48.201 51.1333 48.267C51.2286 48.3257 51.3056 48.4283 51.3643 48.575L54.4003 55.461C54.481 55.637 54.492 55.7837 54.4333 55.901C54.3746 56.0183 54.2573 56.077 54.0813 56.077C53.9493 56.077 53.843 56.044 53.7623 55.978C53.6816 55.9047 53.6156 55.802 53.5643 55.67L52.8493 54.02H48.8123L48.1083 55.67C47.991 55.9413 47.826 56.077 47.6133 56.077ZM50.8253 49.301L49.1423 53.261H52.5303L50.8473 49.301H50.8253ZM57.3081 56.077C57.0074 56.077 56.8571 55.9193 56.8571 55.604V49.026H54.3821C54.1034 49.026 53.9641 48.894 53.9641 48.63C53.9641 48.3733 54.1034 48.245 54.3821 48.245H60.2451C60.5237 48.245 60.6631 48.3733 60.6631 48.63C60.6631 48.894 60.5237 49.026 60.2451 49.026H57.7701V55.604C57.7701 55.9193 57.6161 56.077 57.3081 56.077ZM64.6293 56.099C63.6099 56.099 62.8363 55.8313 62.3083 55.296C61.7803 54.7533 61.5163 53.965 61.5163 52.931V48.63C61.5163 48.322 61.6666 48.168 61.9673 48.168C62.2679 48.168 62.4183 48.322 62.4183 48.63V52.887C62.4183 54.493 63.1553 55.296 64.6293 55.296C66.0886 55.296 66.8183 54.493 66.8183 52.887V48.63C66.8183 48.322 66.9723 48.168 67.2803 48.168C67.5736 48.168 67.7203 48.322 67.7203 48.63V52.931C67.7203 53.965 67.4563 54.7533 66.9283 55.296C66.4076 55.8313 65.6413 56.099 64.6293 56.099Z" fill="#211DCE"/>
    </g>
    <defs>
        <filter id="filter0_d_0_1" x="19" y="13.7234" width="31" height="33.4681" filterUnits="userSpaceOnUse" color-interpolation-filters="sRGB">
            <feFlood flood-opacity="0" result="BackgroundImageFix"/>
            <feColorMatrix in="SourceAlpha" type="matrix" values="0 0 0 0 0 0 0 0 0 0 0 0 0 0 0 0 0 0 127 0" result="hardAlpha"/>
            <feOffset dy="1"/>
            <feGaussianBlur stdDeviation="0.5"/>
            <feColorMatrix type="matrix" values="0 0 0 0 0 0 0 0 0 0 0 0 0 0 0 0 0 0 1 0"/>
            <feBlend mode="normal" in2="BackgroundImageFix" result="effect1_dropShadow_0_1"/>
            <feBlend mode="normal" in="SourceGraphic" in2="effect1_dropShadow_0_1" result="shape"/>
        </filter>
        <filter id="filter1_d_0_1" x="0.339783" y="0.583008" width="68.3805" height="57.516" filterUnits="userSpaceOnUse" color-interpolation-filters="sRGB">
            <feFlood flood-opacity="0" result="BackgroundImageFix"/>
            <feColorMatrix in="SourceAlpha" type="matrix" values="0 0 0 0 0 0 0 0 0 0 0 0 0 0 0 0 0 0 127 0" result="hardAlpha"/>
            <feOffset dy="1"/>
            <feGaussianBlur stdDeviation="0.5"/>
            <feColorMatrix type="matrix" values="0 0 0 0 0 0 0 0 0 0 0 0 0 0 0 0 0 0 0.7 0"/>
            <feBlend mode="normal" in2="BackgroundImageFix" result="effect1_dropShadow_0_1"/>
            <feBlend mode="normal" in="SourceGraphic" in2="effect1_dropShadow_0_1" result="shape"/>
        </filter>
        <clipPath id="clip0_0_1">
            <rect width="29" height="31.4681" fill="white" transform="translate(49 45.1915) rotate(-180)"/>
        </clipPath>
    </defs>
</svg>
