<svg width="73" height="63" viewBox="0 0 73 63" fill="none" xmlns="http://www.w3.org/2000/svg">
    <g filter="url(#filter0_d_0_1)">
        <path d="M1.677 10C1.51233 10 1.378 9.95233 1.274 9.857C1.17867 9.76167 1.131 9.636 1.131 9.48V1.355C1.131 1.199 1.17867 1.07333 1.274 0.978C1.378 0.882666 1.51233 0.834999 1.677 0.834999H4.212C5.67667 0.834999 6.80767 1.23367 7.605 2.031C8.411 2.81967 8.814 3.94633 8.814 5.411C8.814 6.87567 8.411 8.00667 7.605 8.804C6.799 9.60133 5.668 10 4.212 10H1.677ZM4.147 9.09C6.52167 9.09 7.709 7.86367 7.709 5.411C7.709 2.967 6.52167 1.745 4.147 1.745H2.197V9.09H4.147ZM16.2189 9.103C16.3749 9.103 16.4963 9.142 16.5829 9.22C16.6696 9.298 16.7129 9.40633 16.7129 9.545C16.7129 9.69233 16.6696 9.805 16.5829 9.883C16.4963 9.961 16.3749 10 16.2189 10H10.4079C10.2519 10 10.1263 9.95667 10.0309 9.87C9.94426 9.78333 9.90092 9.675 9.90092 9.545C9.90092 9.415 9.94859 9.28067 10.0439 9.142L15.2439 1.732H10.4079C10.2519 1.732 10.1306 1.693 10.0439 1.615C9.95726 1.537 9.91392 1.42867 9.91392 1.29C9.91392 1.14267 9.95726 1.03 10.0439 0.951999C10.1306 0.873999 10.2519 0.834999 10.4079 0.834999H16.0759C16.2319 0.834999 16.3533 0.878333 16.4399 0.964999C16.5353 1.05167 16.5829 1.16 16.5829 1.29C16.5829 1.41133 16.5353 1.54133 16.4399 1.68L11.2269 9.103H16.2189ZM18.7519 10.065C18.5872 10.065 18.4572 10.0173 18.3619 9.922C18.2666 9.818 18.2189 9.68367 18.2189 9.519V1.316C18.2189 1.15133 18.2666 1.02133 18.3619 0.926C18.4572 0.822 18.5872 0.77 18.7519 0.77C18.9166 0.77 19.0466 0.822 19.1419 0.926C19.2372 1.02133 19.2849 1.15133 19.2849 1.316V9.519C19.2849 9.68367 19.2372 9.818 19.1419 9.922C19.0466 10.0173 18.9166 10.065 18.7519 10.065ZM22.0911 10C21.9264 10 21.7921 9.95233 21.6881 9.857C21.5927 9.76167 21.5451 9.636 21.5451 9.48V1.355C21.5451 1.199 21.5927 1.07333 21.6881 0.978C21.7921 0.882666 21.9264 0.834999 22.0911 0.834999H26.9531C27.1091 0.834999 27.2304 0.873999 27.3171 0.951999C27.4037 1.03 27.4471 1.13833 27.4471 1.277C27.4471 1.41567 27.4037 1.524 27.3171 1.602C27.2304 1.68 27.1091 1.719 26.9531 1.719H22.5981V4.904H26.6931C26.8491 4.904 26.9704 4.943 27.0571 5.021C27.1437 5.099 27.1871 5.20733 27.1871 5.346C27.1871 5.48467 27.1437 5.593 27.0571 5.671C26.9704 5.749 26.8491 5.788 26.6931 5.788H22.5981V9.116H26.9531C27.1091 9.116 27.2304 9.155 27.3171 9.233C27.4037 9.30233 27.4471 9.41067 27.4471 9.558C27.4471 9.69667 27.4037 9.805 27.3171 9.883C27.2304 9.961 27.1091 10 26.9531 10H22.0911ZM35.7025 9.194C35.8238 9.30667 35.8845 9.43233 35.8845 9.571C35.8845 9.69233 35.8325 9.805 35.7285 9.909C35.6331 10.0043 35.5205 10.052 35.3905 10.052C35.2778 10.052 35.1608 10 35.0395 9.896L30.1775 5.645V9.519C30.1775 9.68367 30.1298 9.818 30.0345 9.922C29.9391 10.0173 29.8091 10.065 29.6445 10.065C29.4798 10.065 29.3498 10.0173 29.2545 9.922C29.1591 9.818 29.1115 9.68367 29.1115 9.519V1.316C29.1115 1.15133 29.1591 1.02133 29.2545 0.926C29.3498 0.822 29.4798 0.77 29.6445 0.77C29.8091 0.77 29.9391 0.822 30.0345 0.926C30.1298 1.02133 30.1775 1.15133 30.1775 1.316V5.047L34.8185 0.926C34.9138 0.830666 35.0265 0.782999 35.1565 0.782999C35.2865 0.782999 35.3991 0.834999 35.4945 0.939C35.5898 1.03433 35.6375 1.14267 35.6375 1.264C35.6375 1.394 35.5811 1.51533 35.4685 1.628L31.2695 5.32L35.7025 9.194ZM44.9497 9.389C44.9844 9.45833 45.0017 9.532 45.0017 9.61C45.0017 9.74 44.9497 9.84833 44.8457 9.935C44.7504 10.0217 44.6334 10.065 44.4947 10.065C44.2781 10.065 44.1264 9.961 44.0397 9.753L43.1167 7.647H38.2157L37.2797 9.753C37.1931 9.961 37.0414 10.065 36.8247 10.065C36.6861 10.065 36.5647 10.0217 36.4607 9.935C36.3567 9.83967 36.3047 9.727 36.3047 9.597C36.3047 9.52767 36.3221 9.45833 36.3567 9.389L40.0747 1.121C40.1267 0.999666 40.2047 0.908666 40.3087 0.847999C40.4127 0.787333 40.5254 0.757 40.6467 0.757C40.7767 0.757 40.8937 0.791666 40.9977 0.861C41.1017 0.921666 41.1797 1.00833 41.2317 1.121L44.9497 9.389ZM38.6057 6.763H42.7267L40.6597 2.096L38.6057 6.763ZM53.355 0.77C53.511 0.77 53.6324 0.822 53.719 0.926C53.8057 1.02133 53.849 1.15133 53.849 1.316V9.519C53.849 9.68367 53.8014 9.818 53.706 9.922C53.6194 10.0173 53.4937 10.065 53.329 10.065C53.1644 10.065 53.0214 9.99133 52.9 9.844L47.505 2.629V9.519C47.505 9.68367 47.4574 9.818 47.362 9.922C47.2754 10.0173 47.154 10.065 46.998 10.065C46.842 10.065 46.7207 10.0173 46.634 9.922C46.5474 9.818 46.504 9.68367 46.504 9.519V1.316C46.504 1.15133 46.5474 1.02133 46.634 0.926C46.7294 0.822 46.8594 0.77 47.024 0.77C47.1974 0.77 47.3447 0.843666 47.466 0.991L52.848 8.206V1.316C52.848 1.15133 52.8914 1.02133 52.978 0.926C53.0734 0.822 53.199 0.77 53.355 0.77ZM64.0054 9.389C64.0401 9.45833 64.0574 9.532 64.0574 9.61C64.0574 9.74 64.0054 9.84833 63.9014 9.935C63.8061 10.0217 63.6891 10.065 63.5504 10.065C63.3337 10.065 63.1821 9.961 63.0954 9.753L62.1724 7.647H57.2714L56.3354 9.753C56.2487 9.961 56.0971 10.065 55.8804 10.065C55.7417 10.065 55.6204 10.0217 55.5164 9.935C55.4124 9.83967 55.3604 9.727 55.3604 9.597C55.3604 9.52767 55.3777 9.45833 55.4124 9.389L59.1304 1.121C59.1824 0.999666 59.2604 0.908666 59.3644 0.847999C59.4684 0.787333 59.5811 0.757 59.7024 0.757C59.8324 0.757 59.9494 0.791666 60.0534 0.861C60.1574 0.921666 60.2354 1.00833 60.2874 1.121L64.0054 9.389ZM57.6614 6.763H61.7824L59.7154 2.096L57.6614 6.763ZM67.2366 10.065C67.0719 10.065 66.9376 10.0173 66.8336 9.922C66.7383 9.818 66.6906 9.68367 66.6906 9.519V1.745H63.8956C63.7396 1.745 63.6183 1.706 63.5316 1.628C63.4449 1.55 63.4016 1.43733 63.4016 1.29C63.4016 1.14267 63.4449 1.03 63.5316 0.951999C63.6183 0.873999 63.7396 0.834999 63.8956 0.834999H70.5646C70.7206 0.834999 70.8419 0.873999 70.9286 0.951999C71.0153 1.03 71.0586 1.14267 71.0586 1.29C71.0586 1.43733 71.0153 1.55 70.9286 1.628C70.8419 1.706 70.7206 1.745 70.5646 1.745H67.7696V9.519C67.7696 9.68367 67.7219 9.818 67.6266 9.922C67.5313 10.0173 67.4013 10.065 67.2366 10.065Z" fill="#211DCE"/>
    </g>
    <g clip-path="url(#clip0_0_1)" filter="url(#filter1_d_0_1)">
        <path d="M32.3 53.8824L32.6806 55.8687H39.3194L39.7 53.8824C39.7941 53.3929 40.1494 53.0465 40.5588 53.0465H47.9888V45.175H39.4959L36.677 49.324C36.3242 49.8431 35.675 49.8419 35.3229 49.324L32.5041 45.175H24.0112V53.0465H31.4412C31.8506 53.0465 32.2059 53.3929 32.3 53.8824Z" fill="#211DCE" fill-opacity="0.55"/>
        <path d="M50.5588 55.2158C50.4526 55.2158 42.578 55.2158 41.2576 55.2158L40.877 57.2014C40.7833 57.689 40.4292 58.038 40.0182 58.038H31.9817C31.5708 58.038 31.2167 57.6891 31.1229 57.2014L30.7423 55.2158C30.3585 55.2158 21.8192 55.2158 21.4412 55.2158C21.1976 55.2158 21 55.4573 21 55.7538V57.845C21 59.5168 22.1106 60.8776 23.4759 60.8776H48.5241C49.8894 60.8776 51 59.5168 51 57.845V55.7538C51 55.4573 50.8023 55.2158 50.5588 55.2158Z" fill="#211DCE" fill-opacity="0.55"/>
        <path d="M21 24.7231V42.2826C21 42.682 21.2634 43.0057 21.5882 43.0057H32.9165C33.1782 43.0057 33.4265 43.1481 33.5941 43.3954L36 46.9364L38.4059 43.3954C38.5735 43.1481 38.8218 43.0057 39.0835 43.0057H50.4118C50.7366 43.0057 51 42.682 51 42.2826V24.7231C51 24.3237 50.7366 24 50.4118 24H21.5882C21.2634 24 21 24.3237 21 24.7231ZM35.9959 26.726H47.4112C47.8988 26.726 48.2935 27.2112 48.2935 27.8107C48.2935 28.4094 47.8988 28.8953 47.4112 28.8953H35.9959C35.5082 28.8953 35.1135 28.4094 35.1135 27.8107C35.1135 27.2112 35.5082 26.726 35.9959 26.726ZM47.4112 33.8528H40.3971C39.9086 33.8528 39.5147 33.3666 39.5147 32.7682C39.5147 32.1695 39.9094 31.6836 40.3971 31.6836H47.4112C47.8988 31.6836 48.2935 32.1695 48.2935 32.7682C48.2935 33.366 47.9 33.8528 47.4112 33.8528ZM24.5888 26.726H31.6029C32.0906 26.726 32.4853 27.2112 32.4853 27.8107C32.4853 28.4094 32.0906 28.8953 31.6029 28.8953H24.5888C24.1012 28.8953 23.7065 28.4094 23.7065 27.8107C23.7065 27.2112 24.1012 26.726 24.5888 26.726ZM24.5888 31.6836H36.0041C36.4918 31.6836 36.8865 32.1695 36.8865 32.7682C36.8865 33.366 36.4929 33.8528 36.0041 33.8528H24.5888C24.1004 33.8528 23.7065 33.3666 23.7065 32.7682C23.7065 32.1695 24.1012 31.6836 24.5888 31.6836ZM31.6029 38.8111H24.5888C24.1026 38.8111 23.7065 38.3275 23.7065 37.7264C23.7065 37.1256 24.1024 36.6418 24.5888 36.6418H31.6029C32.0906 36.6418 32.4853 37.1277 32.4853 37.7264C32.4853 38.3259 32.0906 38.8111 31.6029 38.8111ZM47.4112 38.8111H35.9959C35.5082 38.8111 35.1135 38.3259 35.1135 37.7264C35.1135 37.1277 35.5082 36.6418 35.9959 36.6418H47.4112C47.8974 36.6418 48.2935 37.1252 48.2935 37.7264C48.2935 38.3275 47.8974 38.8111 47.4112 38.8111Z" fill="#211DCE" fill-opacity="0.55"/>
    </g>
    <defs>
        <filter id="filter0_d_0_1" x="0.130997" y="0.756989" width="71.9276" height="11.308" filterUnits="userSpaceOnUse" color-interpolation-filters="sRGB">
            <feFlood flood-opacity="0" result="BackgroundImageFix"/>
            <feColorMatrix in="SourceAlpha" type="matrix" values="0 0 0 0 0 0 0 0 0 0 0 0 0 0 0 0 0 0 127 0" result="hardAlpha"/>
            <feOffset dy="1"/>
            <feGaussianBlur stdDeviation="0.5"/>
            <feColorMatrix type="matrix" values="0 0 0 0 0 0 0 0 0 0 0 0 0 0 0 0 0 0 0.7 0"/>
            <feBlend mode="normal" in2="BackgroundImageFix" result="effect1_dropShadow_0_1"/>
            <feBlend mode="normal" in="SourceGraphic" in2="effect1_dropShadow_0_1" result="shape"/>
        </filter>
        <filter id="filter1_d_0_1" x="20" y="24" width="32" height="38.8776" filterUnits="userSpaceOnUse" color-interpolation-filters="sRGB">
            <feFlood flood-opacity="0" result="BackgroundImageFix"/>
            <feColorMatrix in="SourceAlpha" type="matrix" values="0 0 0 0 0 0 0 0 0 0 0 0 0 0 0 0 0 0 127 0" result="hardAlpha"/>
            <feOffset dy="1"/>
            <feGaussianBlur stdDeviation="0.5"/>
            <feColorMatrix type="matrix" values="0 0 0 0 0 0 0 0 0 0 0 0 0 0 0 0 0 0 0.7 0"/>
            <feBlend mode="normal" in2="BackgroundImageFix" result="effect1_dropShadow_0_1"/>
            <feBlend mode="normal" in="SourceGraphic" in2="effect1_dropShadow_0_1" result="shape"/>
        </filter>
        <clipPath id="clip0_0_1">
            <rect width="30" height="36.8776" fill="white" transform="translate(21 24)"/>
        </clipPath>
    </defs>
</svg>
