<svg width="78" height="44" viewBox="0 0 78 44" fill="none" xmlns="http://www.w3.org/2000/svg">
    <g filter="url(#filter0_d_0_1)">
        <path d="M1.92 11.3729C1.73 11.3729 1.58 11.3179 1.47 11.2079C1.36 11.0879 1.305 10.9329 1.305 10.7429V1.32288C1.305 1.14288 1.36 0.997882 1.47 0.887882C1.59 0.777882 1.745 0.722881 1.935 0.722881H5.49C6.6 0.722881 7.46 0.992882 8.07 1.53288C8.69 2.07288 9 2.83788 9 3.82788C9 4.81788 8.69 5.58788 8.07 6.13788C7.45 6.68788 6.59 6.96288 5.49 6.96288H2.535V10.7429C2.535 10.9329 2.48 11.0879 2.37 11.2079C2.26 11.3179 2.11 11.3729 1.92 11.3729ZM5.37 5.94288C6.98 5.94288 7.785 5.23788 7.785 3.82788C7.785 2.43788 6.98 1.74288 5.37 1.74288H2.535V5.94288H5.37ZM15.2515 11.4179C14.2715 11.4179 13.4165 11.1979 12.6865 10.7579C11.9665 10.3179 11.4115 9.69288 11.0215 8.88288C10.6315 8.07288 10.4365 7.11788 10.4365 6.01788C10.4365 4.90788 10.6265 3.94788 11.0065 3.13788C11.3965 2.31788 11.9515 1.69288 12.6715 1.26288C13.4015 0.822881 14.2615 0.602881 15.2515 0.602881C16.2415 0.602881 17.0965 0.822881 17.8165 1.26288C18.5465 1.69288 19.1015 2.31788 19.4815 3.13788C19.8715 3.94788 20.0665 4.90288 20.0665 6.00288C20.0665 7.10288 19.8715 8.06288 19.4815 8.88288C19.0915 9.69288 18.5315 10.3179 17.8015 10.7579C17.0815 11.1979 16.2315 11.4179 15.2515 11.4179ZM15.2515 10.3679C16.3715 10.3679 17.2415 9.99288 17.8615 9.24288C18.4915 8.48288 18.8065 7.40288 18.8065 6.00288C18.8065 4.60288 18.4965 3.52788 17.8765 2.77788C17.2565 2.02788 16.3815 1.65288 15.2515 1.65288C14.1315 1.65288 13.2565 2.03288 12.6265 2.79288C12.0065 3.54288 11.6965 4.61288 11.6965 6.00288C11.6965 7.39288 12.0065 8.46788 12.6265 9.22788C13.2565 9.98788 14.1315 10.3679 15.2515 10.3679ZM26.7666 11.4179C25.7666 11.4179 24.9016 11.2029 24.1716 10.7729C23.4416 10.3329 22.8766 9.70788 22.4766 8.89788C22.0866 8.07788 21.8916 7.11288 21.8916 6.00288C21.8916 4.90288 22.0866 3.94788 22.4766 3.13788C22.8766 2.31788 23.4416 1.69288 24.1716 1.26288C24.9016 0.822881 25.7666 0.602881 26.7666 0.602881C27.4366 0.602881 28.0666 0.712881 28.6566 0.932881C29.2566 1.14288 29.7766 1.44788 30.2166 1.84788C30.3766 1.99788 30.4566 2.17288 30.4566 2.37288C30.4566 2.51288 30.4166 2.63788 30.3366 2.74788C30.2566 2.84788 30.1616 2.89788 30.0516 2.89788C29.9316 2.89788 29.7866 2.84288 29.6166 2.73288C29.1066 2.33288 28.6416 2.05288 28.2216 1.89288C27.8116 1.73288 27.3366 1.65288 26.7966 1.65288C25.6366 1.65288 24.7416 2.03288 24.1116 2.79288C23.4916 3.54288 23.1816 4.61288 23.1816 6.00288C23.1816 7.40288 23.4916 8.48288 24.1116 9.24288C24.7416 9.99288 25.6366 10.3679 26.7966 10.3679C27.3266 10.3679 27.8016 10.2879 28.2216 10.1279C28.6416 9.96788 29.1066 9.68788 29.6166 9.28788C29.7866 9.17788 29.9316 9.12288 30.0516 9.12288C30.1616 9.12288 30.2566 9.17288 30.3366 9.27288C30.4166 9.37288 30.4566 9.49788 30.4566 9.64788C30.4566 9.84788 30.3766 10.0229 30.2166 10.1729C29.7766 10.5729 29.2566 10.8829 28.6566 11.1029C28.0666 11.3129 27.4366 11.4179 26.7666 11.4179ZM38.885 10.2629C39.065 10.2629 39.205 10.3079 39.305 10.3979C39.405 10.4879 39.455 10.6129 39.455 10.7729C39.455 10.9429 39.405 11.0729 39.305 11.1629C39.205 11.2529 39.065 11.2979 38.885 11.2979H32.18C32 11.2979 31.855 11.2479 31.745 11.1479C31.645 11.0479 31.595 10.9229 31.595 10.7729C31.595 10.6229 31.65 10.4679 31.76 10.3079L37.76 1.75788H32.18C32 1.75788 31.86 1.71288 31.76 1.62288C31.66 1.53288 31.61 1.40788 31.61 1.24788C31.61 1.07788 31.66 0.947882 31.76 0.857881C31.86 0.767881 32 0.722881 32.18 0.722881H38.72C38.9 0.722881 39.04 0.772881 39.14 0.872881C39.25 0.972881 39.305 1.09788 39.305 1.24788C39.305 1.38788 39.25 1.53788 39.14 1.69788L33.125 10.2629H38.885ZM50.4662 13.2179C50.5262 13.1879 50.5862 13.1729 50.6462 13.1729C50.7362 13.1729 50.8062 13.2079 50.8562 13.2779C50.9062 13.3479 50.9312 13.4279 50.9312 13.5179C50.9312 13.6879 50.8562 13.8179 50.7062 13.9079C50.3662 14.0979 49.9962 14.1929 49.5962 14.1929C49.0762 14.1929 48.6512 14.0429 48.3212 13.7429C48.0012 13.4429 47.8412 13.0529 47.8412 12.5729C47.8412 12.2129 47.9462 11.8829 48.1562 11.5829C48.3662 11.2929 48.6612 11.0629 49.0412 10.8929L48.0362 8.58288H42.3812L41.3012 11.0129C41.2012 11.2529 41.0262 11.3729 40.7762 11.3729C40.6162 11.3729 40.4762 11.3229 40.3562 11.2229C40.2362 11.1129 40.1762 10.9829 40.1762 10.8329C40.1762 10.7529 40.1962 10.6729 40.2362 10.5929L44.5262 1.05288C44.5862 0.912882 44.6762 0.807882 44.7962 0.737881C44.9162 0.667882 45.0462 0.632882 45.1862 0.632882C45.3362 0.632882 45.4712 0.672882 45.5912 0.752882C45.7112 0.822882 45.8012 0.922882 45.8612 1.05288L50.1512 10.5929C50.1912 10.6729 50.2112 10.7579 50.2112 10.8479C50.2112 10.9579 50.1762 11.0579 50.1062 11.1479C50.0362 11.2279 49.9512 11.2829 49.8512 11.3129C49.5212 11.3829 49.2612 11.5129 49.0712 11.7029C48.8812 11.9029 48.7862 12.1529 48.7862 12.4529C48.7862 12.7529 48.8712 12.9829 49.0412 13.1429C49.2212 13.3129 49.4562 13.3979 49.7462 13.3979C49.9762 13.3979 50.2162 13.3379 50.4662 13.2179ZM42.8312 7.56288H47.5862L45.2012 2.17788L42.8312 7.56288ZM53.8795 11.3729C53.6895 11.3729 53.5345 11.3179 53.4145 11.2079C53.3045 11.0879 53.2495 10.9329 53.2495 10.7429V1.77288H50.0245C49.8445 1.77288 49.7045 1.72788 49.6045 1.63788C49.5045 1.54788 49.4545 1.41788 49.4545 1.24788C49.4545 1.07788 49.5045 0.947882 49.6045 0.857881C49.7045 0.767881 49.8445 0.722881 50.0245 0.722881H57.7195C57.8995 0.722881 58.0395 0.767881 58.1395 0.857881C58.2395 0.947882 58.2895 1.07788 58.2895 1.24788C58.2895 1.41788 58.2395 1.54788 58.1395 1.63788C58.0395 1.72788 57.8995 1.77288 57.7195 1.77288H54.4945V10.7429C54.4945 10.9329 54.4395 11.0879 54.3295 11.2079C54.2195 11.3179 54.0695 11.3729 53.8795 11.3729ZM60.2944 11.2979C60.1044 11.2979 59.9494 11.2429 59.8294 11.1329C59.7194 11.0229 59.6644 10.8779 59.6644 10.6979V1.32288C59.6644 1.14288 59.7194 0.997882 59.8294 0.887882C59.9494 0.777882 60.1044 0.722881 60.2944 0.722881H65.9044C66.0844 0.722881 66.2244 0.767881 66.3244 0.857881C66.4244 0.947882 66.4744 1.07288 66.4744 1.23288C66.4744 1.39288 66.4244 1.51788 66.3244 1.60788C66.2244 1.69788 66.0844 1.74288 65.9044 1.74288H60.8794V5.41788H65.6044C65.7844 5.41788 65.9244 5.46288 66.0244 5.55288C66.1244 5.64288 66.1744 5.76788 66.1744 5.92788C66.1744 6.08788 66.1244 6.21288 66.0244 6.30288C65.9244 6.39288 65.7844 6.43788 65.6044 6.43788H60.8794V10.2779H65.9044C66.0844 10.2779 66.2244 10.3229 66.3244 10.4129C66.4244 10.4929 66.4744 10.6179 66.4744 10.7879C66.4744 10.9479 66.4244 11.0729 66.3244 11.1629C66.2244 11.2529 66.0844 11.2979 65.9044 11.2979H60.2944ZM75.9998 10.3679C76.1398 10.4979 76.2098 10.6429 76.2098 10.8029C76.2098 10.9429 76.1498 11.0729 76.0298 11.1929C75.9198 11.3029 75.7898 11.3579 75.6398 11.3579C75.5098 11.3579 75.3748 11.2979 75.2348 11.1779L69.6248 6.27288V10.7429C69.6248 10.9329 69.5698 11.0879 69.4598 11.2079C69.3498 11.3179 69.1998 11.3729 69.0098 11.3729C68.8198 11.3729 68.6698 11.3179 68.5598 11.2079C68.4498 11.0879 68.3948 10.9329 68.3948 10.7429V1.27788C68.3948 1.08788 68.4498 0.937882 68.5598 0.827882C68.6698 0.707882 68.8198 0.647882 69.0098 0.647882C69.1998 0.647882 69.3498 0.707882 69.4598 0.827882C69.5698 0.937882 69.6248 1.08788 69.6248 1.27788V5.58288L74.9798 0.827882C75.0898 0.717882 75.2198 0.662881 75.3698 0.662881C75.5198 0.662881 75.6498 0.722881 75.7598 0.842882C75.8698 0.952881 75.9248 1.07788 75.9248 1.21788C75.9248 1.36788 75.8598 1.50788 75.7298 1.63788L70.8848 5.89788L75.9998 10.3679Z" fill="#211DCE"/>
    </g>
    <g filter="url(#filter1_d_0_1)">
        <path d="M6.29289 33.5695C5.90237 33.96 5.90237 34.5932 6.29289 34.9837L12.6569 41.3477C13.0474 41.7382 13.6805 41.7382 14.0711 41.3477C14.4616 40.9572 14.4616 40.324 14.0711 39.9335L8.41422 34.2766L14.0711 28.6198C14.4616 28.2292 14.4616 27.5961 14.0711 27.2055C13.6805 26.815 13.0474 26.815 12.6569 27.2055L6.29289 33.5695ZM69 33.2766L7 33.2766L7 35.2766L69 35.2766L69 33.2766Z" fill="#211DCE" fill-opacity="0.9"/>
    </g>
    <defs>
        <filter id="filter0_d_0_1" x="0.304993" y="0.602875" width="76.9048" height="15.59" filterUnits="userSpaceOnUse" color-interpolation-filters="sRGB">
            <feFlood flood-opacity="0" result="BackgroundImageFix"/>
            <feColorMatrix in="SourceAlpha" type="matrix" values="0 0 0 0 0 0 0 0 0 0 0 0 0 0 0 0 0 0 127 0" result="hardAlpha"/>
            <feOffset dy="1"/>
            <feGaussianBlur stdDeviation="0.5"/>
            <feColorMatrix type="matrix" values="0 0 0 0 0 0 0 0 0 0 0 0 0 0 0 0 0 0 0.75 0"/>
            <feBlend mode="normal" in2="BackgroundImageFix" result="effect1_dropShadow_0_1"/>
            <feBlend mode="normal" in="SourceGraphic" in2="effect1_dropShadow_0_1" result="shape"/>
        </filter>
        <filter id="filter1_d_0_1" x="5" y="26.9127" width="65" height="16.7279" filterUnits="userSpaceOnUse" color-interpolation-filters="sRGB">
            <feFlood flood-opacity="0" result="BackgroundImageFix"/>
            <feColorMatrix in="SourceAlpha" type="matrix" values="0 0 0 0 0 0 0 0 0 0 0 0 0 0 0 0 0 0 127 0" result="hardAlpha"/>
            <feOffset dy="1"/>
            <feGaussianBlur stdDeviation="0.5"/>
            <feColorMatrix type="matrix" values="0 0 0 0 0 0 0 0 0 0 0 0 0 0 0 0 0 0 1 0"/>
            <feBlend mode="normal" in2="BackgroundImageFix" result="effect1_dropShadow_0_1"/>
            <feBlend mode="normal" in="SourceGraphic" in2="effect1_dropShadow_0_1" result="shape"/>
        </filter>
    </defs>
</svg>
